<?xml version="1.0" encoding="UTF-8" standalone="no"?>
<!-- Created with Inkscape (http://www.inkscape.org/) -->

<svg
   xmlns:dc="http://purl.org/dc/elements/1.1/"
   xmlns:cc="http://creativecommons.org/ns#"
   xmlns:rdf="http://www.w3.org/1999/02/22-rdf-syntax-ns#"
   xmlns:svg="http://www.w3.org/2000/svg"
   xmlns="http://www.w3.org/2000/svg"
   xmlns:sodipodi="http://sodipodi.sourceforge.net/DTD/sodipodi-0.dtd"
   xmlns:inkscape="http://www.inkscape.org/namespaces/inkscape"
   width="169px"
   height="45px"
   viewBox="0 0 169 45"
   version="1.1"
   id="SVGRoot"
   inkscape:version="0.92.3 (2405546, 2018-03-11)"
   sodipodi:docname="Logo.svg">
  <sodipodi:namedview
     id="base"
     pagecolor="#ffffff"
     bordercolor="#666666"
     borderopacity="1.0"
     inkscape:pageopacity="0.0"
     inkscape:pageshadow="2"
     inkscape:zoom="3.0295858"
     inkscape:cx="142.09863"
     inkscape:cy="22.5"
     inkscape:document-units="px"
     inkscape:current-layer="layer1"
     showgrid="false"
     inkscape:window-width="1299"
     inkscape:window-height="713"
     inkscape:window-x="67"
     inkscape:window-y="27"
     inkscape:window-maximized="1" />
  <defs
     id="defs68" />
  <metadata
     id="metadata71">
    <rdf:RDF>
      <cc:Work
         rdf:about="">
        <dc:format>image/svg+xml</dc:format>
        <dc:type
           rdf:resource="http://purl.org/dc/dcmitype/StillImage" />
        <dc:title />
      </cc:Work>
    </rdf:RDF>
  </metadata>
  <g
     id="layer1"
     inkscape:groupmode="layer"
     inkscape:label="Layer 1"
     sodipodi:insensitive="true">
    <path
       id="path130"
       d="M 10.308891,8.3626097 C 9.3612945,11.049012 9.3043387,13.962512 9.0968416,16.77819 c -0.2299618,2.854769 -0.3153713,5.717229 -0.3590452,8.579904 -0.06589,1.315655 0.039411,2.618404 0.2117157,3.920173 0.092379,0.552339 0.1361997,1.110749 0.1581728,1.669823 0.00708,0.461717 0.013718,0.923528 0.013001,1.385312 0.00141,0.349324 0.00384,0.69869 0.00131,1.048016 -7.49e-5,0.377738 -0.00115,0.755499 -0.00452,1.13324 6.66e-5,0.386471 0.00484,0.77294 0.00328,1.159407 -0.00127,0.221067 -0.027122,0.418409 0.092477,0.607358 0.051996,0.07005 0.025187,0.07531 0.074454,0.03426 0,0 -4.1547191,2.656829 -4.1547191,2.656829 v 0 C 4.9800122,38.815276 5.0368724,38.891589 4.949005,38.75418 4.7863559,38.475039 4.6951546,38.232457 4.7425206,37.904891 c -0.00159,-0.387581 0.0032,-0.775164 0.00325,-1.162749 -0.00338,-0.376409 -0.00449,-0.752845 -0.0041,-1.129251 -0.00203,-0.350488 0.0015,-0.70101 0.00453,-1.051479 7.858e-4,-0.458087 0.010272,-0.916208 -8.915e-4,-1.374266 -0.010885,-0.551253 -0.037465,-1.101718 -0.1041842,-1.649494 -0.139967,-1.345538 -0.227217,-2.69085 -0.119063,-4.043961 0.091018,-2.889176 0.2546712,-5.775862 0.4624946,-8.658911 0.2161636,-2.819702 0.2811672,-5.673013 0.8945908,-8.443726 0,0 4.4297397,-2.0284443 4.4297397,-2.0284443 z"
       inkscape:connector-curvature="0"
       style="fill:#ffffff;fill-opacity:1" />
    <path
       id="path134"
       d="m 12.508835,8.3109361 c 1.80262,0.329606 3.627168,0.5500783 5.441715,0.8172966 2.076826,0.3008484 4.122926,0.7617504 6.087261,1.5024923 1.173392,0.379851 2.131748,0.943584 3.019762,1.786404 0.661138,0.722088 1.094895,1.562959 1.329026,2.506547 0.233797,1.136535 -0.01867,2.267631 -0.391732,3.342657 -0.26067,0.534559 -0.355651,0.783559 -0.708169,1.276938 -1.528255,2.13892 -5.08281,3.640483 -6.923212,4.7064 -2.003612,0.939899 -4.169844,1.451694 -6.328779,1.8902 -1.655998,0.302344 -3.336667,0.414823 -5.0163393,0.472796 -0.6362712,0.02197 -1.2729445,0.01848 -1.9094286,0.02634 -0.084657,0.001 -0.1732434,0.03031 -0.2539455,0.0047 -0.06589,-0.0209 -0.1048658,-0.09009 -0.1572987,-0.13513 -0.036238,-0.167809 -0.2488136,-0.404205 -0.1087133,-0.503425 2.965769,-2.100389 3.8639174,-2.676768 6.7247214,-3.008299 2.226578,-0.216738 4.45942,-0.0449 6.681277,0.133321 1.955354,0.130827 3.858396,0.565734 5.771449,0.955923 0.70275,0.238475 1.466895,0.301062 2.156683,0.580424 0.07406,0.02999 0.60347,0.305031 0.697562,0.353589 0.639011,0.34538 1.022828,0.896598 1.300926,1.5484 0.346683,1.298284 0.164939,2.667072 -0.0436,3.973257 -0.190135,1.328589 -0.559235,2.600571 -1.247454,3.75436 -1.662439,2.167394 -4.672232,3.383265 -6.854296,4.642201 -1.584161,0.685392 -3.325426,0.703384 -5.013801,0.877973 -1.836815,0.193503 -3.683659,0.249855 -5.528865,0.294824 -1.4161833,0.0028 -2.8236977,0.183577 -4.2334317,0.298967 -0.6534387,0.07028 -0.9898382,0.113923 -1.5882247,-0.169462 0,0 4.0415073,-2.729069 4.0415073,-2.729069 v 0 c 0.4801645,0.104152 0.9554481,0.06325 1.4439771,0.02101 1.395449,-0.100388 2.790456,-0.238552 4.190889,-0.235907 1.837228,-0.04145 3.674231,-0.11892 5.501971,-0.320132 1.678226,-0.161968 3.405223,-0.254479 4.927625,-1.057873 -7.004457,4.094115 -2.600421,1.775666 -1.323342,0.324692 0.762868,-1.078905 1.196802,-2.287248 1.379379,-3.599399 0.220162,-1.209448 0.390709,-2.477428 0.08667,-3.687838 -0.225591,-0.556302 -0.567386,-0.990783 -1.11929,-1.257944 -0.854353,-0.435393 -1.793534,-0.626419 -2.71484,-0.875227 -1.869615,-0.423893 -3.743189,-0.824311 -5.661753,-0.955907 -2.227071,-0.174057 -4.470909,-0.307637 -6.6936851,0.0037 -0.5742474,0.09342 -0.8327093,0.117746 -1.3801194,0.27071 -0.1728946,0.04831 -0.3425931,0.107965 -0.5107199,0.170893 -0.1294136,0.04844 -0.4989831,0.235166 -0.381181,0.162938 4.0222244,-2.466136 5.0194874,-1.252874 3.6342974,-2.657745 -0.0036,-0.01742 -0.02815,-0.04878 -0.01072,-0.05225 0.193416,-0.03853 0.394298,0.01148 0.59151,0.01277 0.498188,0.0033 0.996448,-0.0011 1.494532,-0.01136 1.643496,-0.05065 3.288047,-0.168068 4.903476,-0.491292 2.138993,-0.454043 4.288956,-0.981064 6.237415,-2.004706 -6.20407,3.646275 -2.84947,1.848214 -1.685336,0.763988 0.532167,-0.495639 0.929305,-1.089202 1.255739,-1.735021 0.397668,-0.963584 0.668415,-2.025315 0.489261,-3.069921 -0.19249,-0.860765 -0.568371,-1.623892 -1.188422,-2.264692 -0.811114,-0.78082 -1.79317,-1.282506 -2.848151,-1.666852 -1.929293,-0.730441 -3.940997,-1.172174 -5.984205,-1.449882 -1.855852,-0.276511 -3.717404,-0.490717 -5.5796463,-0.71706 0,0 4.0000643,-2.8203749 4.0000643,-2.8203749 z"
       inkscape:connector-curvature="0"
       style="fill:#ffffff;fill-opacity:1" />
    <path
       id="path136"
       d="m 35.620368,21.327218 c 1.850754,0.963119 3.379364,2.355971 4.780856,3.878352 1.564368,1.840109 2.769381,3.94912 3.645183,6.193488 0.499061,1.313449 0.638529,2.710802 0.707343,4.102277 0.03431,0.706041 0.02108,1.412586 0.02075,2.119005 0.02938,0.485007 -0.05254,0.954646 -0.189494,1.417598 -0.119107,0.238459 -0.286791,0.449564 -0.481863,0.63314 2.781733,-1.002309 -3.70892,3.631204 -4.858856,2.247478 -0.219504,-0.26413 -0.278158,-0.515169 -0.393027,-0.831343 -0.419031,-1.672863 -0.221647,-3.263411 0.188038,-4.909669 0.490398,-1.850939 1.290054,-3.587255 2.251146,-5.235405 0.671779,-1.187218 1.587545,-2.190572 2.601391,-3.090625 0.756142,-0.621651 1.562998,-1.176824 2.323471,-1.79297 1.78781,-1.388393 3.758887,-2.627898 5.897197,-3.379574 0.24801,-0.141721 0.545137,-0.117071 0.808469,-0.192845 0.213704,-0.06149 0.435892,-0.180391 0.647196,-0.258342 0.356196,-0.09051 0.724069,-0.112462 1.089932,-0.121694 0,0 -3.948746,2.910445 -3.948746,2.910445 v 0 c -0.344857,0.03926 -0.688716,0.09375 -1.010954,0.229719 -0.474216,0.161706 -0.967083,0.252999 -1.429363,0.451343 -1.606886,0.701684 -3.091238,1.751818 3.350075,-2.022113 0.09121,-0.05344 -0.192326,0.08876 -0.283075,0.142974 -0.08159,0.04874 -0.533711,0.373418 -0.598793,0.419792 -0.765446,0.631392 -1.564485,1.216052 -2.368319,1.797656 -1.034056,0.864164 -2.011401,1.803357 -2.711249,2.969299 -0.981392,1.608191 -1.841234,3.285694 -2.324493,5.119139 -0.413039,1.549203 -0.667571,3.019729 -0.228029,4.602053 0.02481,0.06559 0.114035,0.403743 0.236352,0.480978 0.132038,0.08337 0.192444,-0.0671 0.294625,-0.108876 -1.371884,0.796586 -2.743769,1.593172 -4.115653,2.389758 0.07819,-0.04362 0.249702,-0.101297 0.306622,-0.164652 0.0934,-0.103957 0.112329,-0.223232 0.272162,-0.279859 0.306417,-0.288659 0.297438,-0.813431 0.308148,-1.206756 0.02139,-0.707511 0.03792,-1.415505 0.0402,-2.123302 -0.02385,-1.353539 -0.122689,-2.711817 -0.559618,-4.004607 -0.792846,-2.213645 -1.941463,-4.286661 -3.479533,-6.074886 -1.410378,-1.481761 -2.959509,-2.833619 -4.879248,-3.615139 0,0 4.091159,-2.691837 4.091159,-2.691837 z"
       inkscape:connector-curvature="0"
       style="fill:#ffffff;fill-opacity:1" />
    <path
       id="path138"
       d="m 59.811235,25.573408 c -1.015076,-0.182737 -2.022574,-4.31e-4 -2.981235,0.340073 -1.498888,0.725149 -4.231876,2.026013 2.505349,-1.481813 0.197949,-0.103065 -0.354671,0.271915 -0.519309,0.422582 -0.539985,0.494163 -0.576065,0.600954 -1.031843,1.201306 -0.959549,1.51295 -1.557835,3.222851 -2.12836,4.912077 -0.382366,1.261061 -0.663348,2.552185 -0.853885,3.855665 -0.120616,0.857493 -0.141339,1.723491 -0.146894,2.587902 0.07616,0.432046 0.04231,1.002806 0.339724,1.355298 0.684968,0.196185 1.424054,0.205367 2.128411,0.138913 0.523419,-0.115987 1.059605,-0.242457 1.561328,-0.435906 0.180458,-0.06958 0.693795,-0.340761 0.526769,-0.243248 -4.476235,2.613323 -4.666703,2.767108 -3.082523,1.679547 1.282021,-0.981228 2.000802,-2.393085 2.57897,-3.860444 0.607563,-1.440672 0.923463,-2.961459 1.099226,-4.507404 0.09498,-0.9738 0.09168,-1.952506 0.09256,-2.929642 -0.0091,-0.649256 -0.01219,-1.298692 -0.02384,-1.94792 -0.0123,-0.441628 0.01447,-0.884761 -0.01639,-1.325808 5.324982,-2.710982 4.339404,-3.53072 4.364062,-1.334913 0.0072,0.641007 0.07445,1.276883 0.143904,1.913307 0.2165,1.752435 0.869066,3.388355 1.601503,4.97958 0.750048,1.589188 1.697578,3.068158 2.719589,4.49349 0.893706,1.201992 1.989702,2.242997 3.11046,3.230875 0.939732,0.740127 1.923244,1.416289 3.076902,1.757366 0.910625,0.263994 1.868046,0.156798 2.792279,0.300358 0.44765,0.08234 0.228177,0.0433 0.658363,0.117418 0,0 -4.002254,2.803456 -4.002254,2.803456 v 0 c -0.418955,-0.07406 -0.2071,-0.03884 -0.635606,-0.10542 -0.944877,-0.08955 -1.907982,-0.09107 -2.818481,-0.397471 -1.171451,-0.429832 -2.19323,-1.147385 -3.147974,-1.944224 -1.139963,-1.020446 -2.259295,-2.087703 -3.159987,-3.330486 -1.012006,-1.465228 -1.976874,-2.967229 -2.73813,-4.581025 -0.762414,-1.625234 -1.429808,-3.306975 -1.703943,-5.091644 -0.02603,-0.179231 -0.32516,-2.593128 -0.255086,-2.636529 1.418184,-0.878369 2.92339,-1.607766 4.385084,-2.411649 -0.02857,0.445319 -0.0043,0.892262 -0.01181,1.338088 -0.0058,0.654516 0.0011,1.309152 -0.0028,1.963683 0.0018,1.001367 -0.01737,2.003853 -0.115289,3.001163 -0.171384,1.583614 -0.470898,3.156814 -1.087357,4.634138 -0.542979,1.515064 -1.202282,2.996366 -2.427557,4.092783 -2.132372,1.724824 -4.631238,3.297164 -7.39117,3.649671 -0.826915,0.0096 -1.774272,0.05396 -2.441739,-0.508358 -0.334052,-0.485647 -0.377295,-1.073814 -0.472803,-1.645059 0.01792,-0.890578 0.05645,-1.781884 0.160136,-2.66709 0.200154,-1.336824 0.478606,-2.66387 0.871678,-3.957828 0.569237,-1.722165 1.190291,-3.447187 2.070646,-5.037253 0.15495,-0.240033 0.294859,-0.490473 0.46485,-0.720101 1.603523,-2.166073 4.338206,-3.296116 6.788749,-4.285833 1.039637,-0.275417 2.100047,-0.373684 3.168866,-0.197296 0,0 -4.013109,2.815625 -4.013109,2.815625 z"
       inkscape:connector-curvature="0"
       style="fill:#ffffff;fill-opacity:1" />
    <path
       id="path140"
       d="m 80.151987,24.704845 c 0.561399,1.731008 0.818776,3.529282 0.998315,5.333375 0.134784,1.610066 0.190685,3.225926 0.229392,4.840833 0.04194,0.54598 -0.01856,1.112841 0.05199,1.649659 -1.466707,0.684636 -2.887978,1.476517 -4.40012,2.053908 -0.118482,0.04524 0.01261,-0.253353 0.01659,-0.380117 0.0053,-0.169749 0.0085,-0.339563 0.01137,-0.509372 0.01098,-0.64799 0.01218,-1.296192 0.01761,-1.944242 0.0085,-1.220014 -0.01459,-2.439839 -0.01902,-3.659763 -0.008,-0.789653 -0.0046,-1.579448 -0.01676,-2.369049 0.0017,-0.5 -0.0087,-0.999932 -0.0106,-1.499877 -0.03521,-0.461822 0.111935,-0.844061 0.530618,-1.086872 1.512496,-0.877157 3.042696,-1.723427 4.564045,-2.58514 1.187808,-0.331783 2.435875,-0.37538 3.661902,-0.423323 0.853717,-0.02951 1.707832,-0.04239 2.562022,-0.04354 0.720733,-0.05243 1.006668,0.09329 1.420249,0.674432 0.405826,0.78751 0.435032,1.693047 0.493243,2.560015 0.04299,0.850306 0.04171,1.702288 0.04455,2.553502 0.0038,0.68097 -0.0043,1.361995 0.0036,2.042934 3.9e-4,0.09189 9.87e-4,0.183788 0.0012,0.275683 5.35e-4,0.266271 -0.01366,0.536647 0.0019,0.802567 0.0011,0.01844 0.02085,0.07086 0.01499,0.05335 -0.03985,-0.119088 -0.07798,-0.238743 -0.116967,-0.358115 -5.793818,3.529602 -4.455061,3.487807 -3.707754,1.510955 0.220243,-0.582609 0.399821,-1.180806 0.580951,-1.776294 0.307909,-1.023696 0.620827,-2.045131 1.024145,-3.035832 0.30025,-0.709886 0.676566,-1.380083 1.110257,-2.015952 0.502796,-0.841082 1.158397,-1.53834 1.893967,-2.176917 2.017669,-1.722026 4.462944,-2.883446 6.74136,-4.190765 0.683314,-0.350243 1.452158,-0.465893 2.186508,-0.671469 0.64109,-0.02804 1.25064,0.0025 1.74982,0.433076 0.50948,0.556125 0.61525,1.274484 0.68426,1.995507 0.089,1.349934 0.18069,2.689804 0.15281,4.043731 -0.0972,1.460577 -0.27253,2.913985 -0.37127,4.374523 -0.057,0.792512 -0.0588,1.586881 -0.0692,2.380795 10e-4,0.548913 0.005,1.097794 0.007,1.646687 -0.004,0.47277 0.005,0.94549 0.005,1.41824 -0.002,0.291294 -0.002,0.149165 5.6e-4,0.426389 0,0 -4.374612,2.229041 -4.374612,2.229041 v 0 c 0.0024,-0.278529 0.0022,-0.136274 4.33e-4,-0.426767 -3.3e-5,-0.473719 0.0081,-0.947425 0.0024,-1.421156 2.78e-4,-0.552828 -2.87e-4,-1.105696 0.0054,-1.6585 0.0018,-0.81169 0.03713,-1.623499 0.09862,-2.432827 0.123432,-1.460283 0.311015,-2.913537 0.431899,-4.373958 0.021,-1.327922 -0.06782,-2.637097 -0.211972,-3.956202 -0.04422,-0.56533 -0.06765,-1.196429 -0.496296,-1.618724 -0.459633,-0.23434 -0.998923,-0.204848 -1.48923,-0.08057 -0.713604,0.199463 -1.451097,0.325988 -2.088571,0.73262 7.344929,-4.272497 3.020147,-1.923234 1.524666,-0.665615 -0.733029,0.602737 -1.458546,1.211169 -1.922731,2.057747 -0.448439,0.599797 -0.828475,1.242356 -1.145407,1.921755 -0.455469,0.966421 -0.786422,1.979518 -1.091865,3.002272 -0.226311,0.76319 -0.465612,1.520708 -0.713416,2.276641 -0.0416,0.126906 -0.0033,0.308075 -0.112917,0.384411 -1.387545,0.966571 -2.867295,1.793538 -4.300943,2.690307 -0.101633,-0.09886 -0.220054,-0.182992 -0.3049,-0.29659 -0.19617,-0.262646 0.0039,-0.958745 -0.05929,-1.280032 0.0099,-0.683828 0.0054,-1.367803 0.01338,-2.051664 0.0057,-0.844723 0.01263,-1.689721 -0.01882,-2.534089 -0.0374,-0.769321 -0.04295,-1.585962 -0.391377,-2.289564 -0.331318,-0.411576 -0.669667,-0.292766 -1.165573,-0.301015 -0.830225,-0.0071 -1.66085,-0.0133 -2.490644,0.02105 -1.207482,0.06325 -2.454956,0.110849 -3.579351,0.600226 1.262231,-0.739907 2.527125,-1.475288 3.786692,-2.219721 0.09628,-0.0569 -0.196483,0.106974 -0.296528,0.156954 -0.145627,0.07275 -0.358999,0.117818 -0.400831,0.306217 -0.01228,0.0553 -0.0017,0.113277 -0.0025,0.169916 -0.0019,0.503549 -0.01224,1.007086 -0.01061,1.510689 -0.0121,0.795313 -0.0089,1.590813 -0.01684,2.386175 -0.0045,1.226302 -0.02758,2.452506 -0.01878,3.678899 0.0072,0.806989 0.0028,1.615086 0.03163,2.42171 0.0043,0.120189 0.119851,0.296188 0.01812,0.360342 -1.4129,0.891048 -2.93206,1.601261 -4.398091,2.401892 0.08472,-0.537253 0.0235,-1.121021 0.06154,-1.672992 0.01355,-1.615658 0.0035,-3.232914 -0.128963,-4.844362 -0.168158,-1.756068 -0.38182,-3.532645 -1.062956,-5.176254 0,0 4.270201,-2.351786 4.270201,-2.351786 z"
       inkscape:connector-curvature="0"
       style="fill:#ffffff;fill-opacity:1" />
    <path
       id="path144"
       d="m 111.10292,6.9077266 c -0.0784,1.9538629 -0.0712,3.9105924 -0.0805,5.8658114 -0.0142,2.434392 -0.002,4.868797 0.007,7.303178 0.006,1.948056 0.0131,3.896104 0.0246,5.844134 0.0159,1.550973 -3.4e-4,3.10197 0.0104,4.652951 0.01,1.298373 0.011,2.596663 0.007,3.895049 -0.007,1.113454 0.009,2.226755 0.0213,3.340097 0.007,0.518149 0.0129,1.036204 0.0128,1.554408 0,0 -4.36065,2.221862 -4.36065,2.221862 v 0 c -9e-5,-0.522561 0.006,-1.044976 0.0128,-1.567483 0.0119,-1.120577 0.028,-2.241115 0.0213,-3.361802 -0.004,-1.300886 -0.003,-2.601676 0.007,-3.90255 0.0107,-1.554511 -0.005,-3.109037 0.0104,-4.663541 0.0115,-1.956398 0.0189,-3.912812 0.0246,-5.869235 0.009,-2.436803 0.0213,-4.873629 0.007,-7.310442 -0.009,-1.927868 -10e-4,-3.85737 -0.0805,-5.7838184 0,0 4.35428,-2.218619 4.35428,-2.218619 z"
       inkscape:connector-curvature="0"
       style="fill:#ffffff;fill-opacity:1" />
    <path
       id="path146"
       d="m 107.85252,31.875804 c 2.49423,-2.026122 5.38187,-3.573682 8.40715,-4.651341 2.35956,-0.913157 4.85219,-1.192517 7.35518,-1.362783 1.84449,-0.09087 3.70227,-0.201607 5.53265,0.09668 0.61286,0.151695 1.31637,0.245627 1.86856,0.581625 0.22809,0.13879 0.43086,0.357494 0.61962,0.543484 0.47954,0.641618 0.73318,1.422281 0.94826,2.185553 0.25909,0.967744 0.25388,1.925857 0.0681,2.90154 -0.23599,0.846968 -0.55431,1.671951 -0.9481,2.457711 -0.4604,0.897668 -1.31132,1.44559 -2.12807,1.985597 -2.26408,1.483934 -4.55325,2.772359 -7.08342,3.663177 -1.01171,0.365468 -2.07621,0.467808 -3.14159,0.524253 -0.99076,0.03252 -1.98217,0.02231 -2.97327,0.02059 -0.94438,-0.0023 -1.88876,-0.0036 -2.83314,-0.0066 -0.96966,-1.72e-4 -1.9393,-0.0023 -2.90895,8.66e-4 -0.72104,0.01955 -1.43005,-0.155163 -2.14084,-0.258646 -0.47498,-0.05079 -0.95273,-0.05638 -1.42986,-0.06022 0,0 3.97229,-2.876102 3.97229,-2.876102 v 0 c 0.49094,0.01203 0.9819,0.04272 1.46737,0.120316 0.68114,0.121911 1.36439,0.254423 2.06063,0.219661 0.96829,0.0032 1.93658,0.0011 2.90487,0.0028 0.94461,-8.01e-4 1.88922,0.0019 2.83381,0.0071 0.98454,0.0035 1.97016,0.0093 2.9535,-0.04641 1.0371,-0.07902 2.0642,-0.238911 3.03761,-0.623998 1.82692,-0.726228 6.21852,-2.915331 -1.23273,1.069544 0.79036,-0.488481 1.66728,-0.974823 2.20263,-1.75106 0.43246,-0.737257 0.71745,-1.537792 1.01148,-2.337535 0.22918,-0.903475 0.2809,-1.776172 0.0343,-2.688636 -0.18238,-0.681678 -0.41228,-1.377825 -0.83259,-1.952257 -0.61621,-0.583839 -1.45869,-0.755465 -2.27281,-0.908662 -1.78208,-0.255273 -3.58227,-0.176398 -5.37481,-0.0791 -2.49257,0.187611 -4.95904,0.537529 -7.29372,1.484268 -0.34473,0.133197 -0.69312,0.257278 -1.03418,0.399593 -0.30961,0.12919 -1.19923,0.596098 -0.91708,0.414603 6.25093,-4.020968 3.19569,-1.882369 1.78896,-0.948491 0,0 -4.52182,1.873001 -4.52182,1.873001 z"
       inkscape:connector-curvature="0"
       style="fill:#ffffff;fill-opacity:1" />
    <path
       id="path148"
       d="m 141.12549,2.2403905 c -0.33064,1.3282566 -0.60797,2.6687978 -0.87214,4.0116065 -0.48195,2.4109079 -0.92144,4.825079 -1.19778,7.26869 -0.25135,2.486212 -0.29043,4.986543 -0.30998,7.483242 -0.0108,2.197572 0.002,4.395103 0.0198,6.592595 0.012,1.51294 0.0265,3.025877 0.0349,4.538839 0.0118,1.017983 0.007,2.036132 0.0192,3.054088 0.006,0.621944 0.0144,1.243769 0.0136,1.865746 0.002,0.356974 0.0138,0.71396 0.0122,1.07093 0.01,0.107711 -0.001,0.04171 0.051,0.194028 0,0 -4.3002,2.390003 -4.3002,2.390003 v 0 c -0.0893,-0.220034 -0.0434,-0.103733 -0.13694,-0.3492 -0.002,-0.361132 0.0106,-0.722282 0.0123,-1.083419 -8e-4,-0.626625 0.008,-1.253101 0.0137,-1.879694 0.0125,-1.024291 0.008,-2.048768 0.0186,-3.073092 0.007,-1.523038 0.019,-3.046059 0.0257,-4.569106 0.0105,-2.207063 0.0108,-4.414163 0.025,-6.621197 0.027,-2.512939 0.0483,-5.030899 0.30277,-7.533478 0.27173,-2.435513 0.68487,-4.8454 1.10307,-7.2593639 0.22752,-1.3205167 0.50344,-2.6330259 0.76091,-3.948046 0,0 4.40416,-2.1531716 4.40416,-2.1531716 z"
       inkscape:connector-curvature="0"
       style="fill:#ffffff;fill-opacity:1" />
    <path
       id="path150"
       d="m 151.44166,26.201089 c 0.52715,1.263918 1.37188,2.341646 2.3624,3.27153 1.24418,1.067411 2.70319,1.799624 4.26856,2.255684 0.95017,0.226772 1.91893,0.379578 2.88248,0.181302 0.0843,0.112376 0.89852,-0.391319 0.81394,-0.343403 -6.97815,3.952938 -4.61913,2.879055 -3.31976,1.789038 0.79028,-0.756738 0.91773,-1.839187 1.0455,-2.871068 0.1761,-1.289335 -0.0869,-2.554332 -0.40188,-3.797917 -0.25013,-0.955503 -0.58847,-1.735209 -1.24094,-2.475803 -0.63419,-0.617425 -1.36847,-1.065013 -2.20466,-1.34393 -0.76924,-0.273431 -1.57475,-0.500515 -2.39564,-0.440546 -1.59821,0.410879 -3.95962,1.988673 3.0309,-1.872196 0.14835,-0.08193 -0.28922,0.177067 -0.42835,0.273826 -0.39089,0.271852 -0.57328,0.436296 -0.94158,0.741396 -1.07288,0.87935 -1.99984,1.902218 -2.90463,2.947649 -0.89883,0.996351 -1.5853,2.1572 -2.25828,3.311538 -0.73481,1.318732 -1.21394,2.764939 -1.68709,4.193644 -0.52462,1.353222 -0.73375,2.779548 -0.94943,4.204102 -0.14009,0.875039 -0.32907,1.747724 -0.17277,2.630667 0.13167,0.554139 0.3488,1.118176 0.76414,1.521266 0.56423,0.264471 1.25274,0.217454 1.86528,0.232096 1.01168,0.03748 2.01439,-7.05e-4 3.01984,-0.108369 1.25639,-0.218571 2.45447,-0.697337 3.63623,-1.164326 0.19786,-0.08458 0.39483,-0.171256 0.59357,-0.253747 0.74881,-0.310818 0.3733,-0.129972 1.07868,-0.464472 0.16926,-0.08027 0.66708,-0.340372 0.50534,-0.245878 -1.22902,0.718001 -2.4712,1.413232 -3.70836,2.11711 -0.13293,0.07563 0.26376,-0.1549 0.39564,-0.23235 2.15549,-0.70073 3.78034,-2.553504 5.95391,-3.205827 0.46911,-0.101169 0.94988,-0.09903 1.42707,-0.104889 0.0813,0.02558 0.16254,0.05117 0.2438,0.07675 0,0 -4.01828,2.815473 -4.01828,2.815473 v 0 c -0.0631,5.89e-4 -0.12616,0.0012 -0.18923,0.0018 -0.45085,0.01577 -0.9049,0.05523 -1.32983,0.218604 -1.70161,0.653281 -4.56692,2.75648 2.44506,-1.546728 -2.33974,1.387607 -4.62441,2.873807 -7.1901,3.796986 -1.21308,0.447145 -2.42916,0.938334 -3.72625,1.071188 -1.02462,0.09231 -2.0504,0.108701 -3.07877,0.0733 -0.7302,-0.02902 -1.53513,-0.01744 -2.11202,-0.532366 -0.43278,-0.505952 -0.72099,-1.117188 -0.87645,-1.764152 -0.21476,-0.949085 -0.0399,-1.869732 0.14257,-2.813678 0.25652,-1.440913 0.39816,-2.910281 0.94677,-4.283442 0.4621,-1.446911 0.93967,-2.910039 1.62194,-4.268333 0.64665,-1.192307 1.36396,-2.366689 2.2336,-3.409253 0.91661,-1.034891 1.78025,-2.117775 2.85415,-3.002147 1.92055,-1.691779 4.15425,-3.576244 6.75129,-3.816691 0.85971,0.05594 1.68981,0.278347 2.49415,0.585209 0.87235,0.362798 1.66792,0.865967 2.32458,1.553063 0.71603,0.83299 1.06062,1.623085 1.3326,2.687023 0.31418,1.293682 0.61574,2.609116 0.47193,3.950422 -0.0935,1.085415 -0.18678,2.251337 -0.85705,3.15343 -1.49841,1.699536 -3.67659,2.961341 -5.91224,3.339464 -0.99685,0.07008 -1.98938,-0.12655 -2.94501,-0.400348 -1.59158,-0.545757 -3.08765,-1.34147 -4.36239,-2.451522 -1.0291,-0.976984 -1.89364,-2.093821 -2.55072,-3.35697 0,0 4.25579,-2.423181 4.25579,-2.423181 z"
       inkscape:connector-curvature="0"
       style="fill:#ffffff;fill-opacity:1" />
  </g>
</svg>
