<?xml version="1.0" standalone="no"?>
<!DOCTYPE svg PUBLIC "-//W3C//DTD SVG 20010904//EN"
 "http://www.w3.org/TR/2001/REC-SVG-20010904/DTD/svg10.dtd">
<svg version="1.0" xmlns="http://www.w3.org/2000/svg"
 width="1000.000000pt" height="600.000000pt" viewBox="0 0 1000.000000 600.000000"
 preserveAspectRatio="xMidYMid meet">

<g transform="translate(0.000000,600.000000) scale(0.100000,-0.100000)"
fill="#000000" stroke="none">
<path d="M1625 4406 c-63 -20 -104 -45 -156 -93 -93 -87 -140 -188 -159 -339
-14 -114 0 -197 50 -299 40 -83 131 -202 176 -231 24 -16 26 -16 43 2 10 10
28 48 41 84 53 152 150 315 247 416 51 53 159 134 196 147 7 2 -5 40 -37 108
-90 196 -119 219 -271 218 -49 0 -108 -6 -130 -13z"/>
<path d="M3075 4402 c-22 -11 -50 -33 -63 -50 -21 -30 -122 -237 -122 -252 0
-4 14 -13 32 -21 76 -31 212 -163 283 -274 46 -71 108 -199 135 -275 13 -36
31 -74 41 -84 17 -18 19 -18 43 -2 45 29 136 148 176 231 50 102 64 185 50
299 -19 152 -66 252 -161 341 -79 74 -144 99 -269 103 -87 2 -112 -1 -145 -16z"/>
<path d="M2210 4027 c-205 -46 -380 -244 -490 -553 -28 -77 -38 -94 -78 -128
-110 -91 -203 -227 -248 -361 -47 -142 -42 -363 12 -494 8 -19 13 -35 11 -37
-4 -5 -111 29 -176 55 -49 20 -55 20 -77 6 -37 -24 -33 -70 9 -95 80 -50 297
-101 490 -116 92 -7 115 -20 86 -49 -26 -25 -336 -65 -501 -65 -86 0 -108 -12
-108 -60 0 -48 24 -54 195 -47 82 4 187 11 232 18 l82 11 60 -47 c62 -47 216
-135 239 -135 10 0 9 7 -3 29 -28 55 -64 201 -75 302 -12 119 -2 149 50 149
42 0 60 -31 60 -108 0 -258 159 -541 357 -635 58 -27 79 -32 143 -32 64 0 85
5 143 32 198 94 357 377 357 635 0 77 18 108 60 108 52 0 61 -29 50 -153 -9
-96 -46 -252 -70 -298 -15 -28 -13 -29 27 -13 45 19 130 73 201 126 l52 41 93
-12 c50 -7 157 -15 237 -18 165 -7 190 -1 190 47 0 47 -22 60 -103 60 -170 0
-480 40 -506 65 -29 29 -6 42 86 49 193 15 410 66 491 116 41 25 45 71 8 95
-22 14 -28 14 -77 -6 -65 -26 -172 -60 -176 -55 -2 2 4 19 12 39 29 70 48 216
42 327 -7 121 -32 215 -84 309 -37 67 -149 192 -208 232 -28 20 -40 39 -65
113 -112 320 -295 519 -513 556 -73 13 -123 9 -200 -16 -43 -14 -52 -14 -95 1
-65 22 -156 27 -222 12z m-9 -903 c72 -37 70 -152 -3 -190 -55 -29 -125 -8
-153 46 -51 98 55 197 156 144z m669 1 c32 -17 60 -61 60 -95 0 -56 -57 -110
-117 -110 -43 0 -89 34 -103 74 -32 97 68 179 160 131z m-234 -1065 c73 -28
86 -85 31 -138 -93 -90 -302 -85 -383 11 -52 62 -15 118 93 137 60 11 220 5
259 -10z"/>
</g>
</svg>
